<svg t="1704695746431" class="icon" viewBox="0 0 3231 1024" version="1.1" xmlns="http://www.w3.org/2000/svg" p-id="24731" width="16" height="16"><path d="M1053.1808766 559.50816453l-47.22705103-45.82148423s-10.96342224-8.15228867-23.33241271 3.65447407c0 0-45.54037073 44.41591745-84.33401958 80.11731922-36.82585507 33.45249447-73.65171083 68.02944295-87.4262674 77.86841192 0 0-59.59604077 61.00160756-135.10310014 1.40556677 0 0-102.85939308-80.67954549-204.62244327-219.26845147l-3.32838289 16.30457661s-3.79503119 13.49344305 5.22308715 26.14354633c0 0 79.45951348 117.22428775 177.25886498 201.27719455 0 0 48.74506378 52.00597913 111.09601587 63.25051485 0 0 51.44375212 14.05567005 100.35748342-25.3002065 23.89463901-18.27237114 75.90061812-66.90498894 119.47319506-108.22865858 40.19921636-38.23142256 71.96503055-71.40280353 71.96503054-71.40280354M1142.85605128 655.64894757l-41.60478316-45.82148423s-5.06004089-6.74672189-14.89901056 1.6866803-138.02667898 133.24775158-186.94041101 166.98135958c-28.11134011 22.48907223-58.19047401 33.73360798-91.64296772 36.54474155-25.0190923 2.81113431-52.00597913-2.81113431-80.79199149-14.05567002-31.31603244-14.05567005-79.13342231-53.4115459-123.91478665-98.95191666-31.65336893-32.89026747-63.13806961-69.15389623-89.59084056-104.293071-17.87881238-23.89463901-35.12230823-47.78927802-48.09850263-68.59166997 0 0 0 28.95467988 12.66134785 53.41154591 0 0 52.38829328 100.07637062 154.62923636 193.12490588 9.97952535 11.24453574 97.18090222 98.38968963 181.85225825 95.57855606 0 0 78.99286521 5.62226787 150.95789577-53.41154591 11.80676273-11.24453574 138.02667898-119.47319507 177.38255555-162.20243149M597.35549868 464.49183547l47.31138515 45.82148423s10.87908884 8.15228867 23.33241273-3.65447407c0 0 45.39981435-44.41591745 84.10912908-80.11731922 36.82585507-33.36816035 73.65171083-67.94510884 87.42626737-77.7840778 0 0 59.59604077-61.56383457 135.21554469-1.40556678 0 0 103.16861771 80.59521137 204.6505551 219.18411736l3.37336133-16.30457663s3.65447406-13.49344305-5.34115511-26.14354628c0 0-79.2739787-117.13995364-177.10144132-201.19286046 0 0-48.91373132-51.72486561-111.32090638-64.65608165 0 0-51.44375212-12.08787628-100.07637064 26.14354631-23.89463901 18.83459815-76.09739751 67.46721594-119.5013062 108.79088559C629.12131285 431.32045451 597.35549868 464.49183547 597.35549868 464.49183547M507.4554335 368.43538655l41.57667201 45.82148423s5.22870911 6.74672189 14.98334396-1.68668029c9.75463482-8.43340218 138.1110131-132.9666381 186.96852214-168.10581287 28.11134011-19.95905143 58.19047401-32.89026747 91.36185495-35.13917477 25.3002058-1.96779381 52.28709261 1.40556679 80.96065902 13.77455656 31.48470068 14.05567005 79.2739787 52.56820539 123.97100965 99.23303014 31.48470068 32.60915469 63.25051487 68.87278273 89.67517466 103.92762336 17.71014413 23.89463901 35.13917476 47.78927802 48.07039081 68.59166997 0 0 0-28.95467988-12.65010254-53.41154591 0 0-52.56820539-99.9920365-154.61236983-194.44613855-10.12008246-8.99562845-97.26523634-96.42751849-181.88037014-94.45972469 0 0-78.99286521-4.49781458-151.01411799 54.54162184-11.69431749 9.83896897-137.9704567 118.62985455-177.4106667 161.35909098m-15.20823446 28.9546806S565.19612574 493.72762886 645.56644661 557.54037073c0 0 30.4445815 26.1435463 63.0537362-3.37336058L875.79832105 402.45010803s50.31929883-50.31929883 107.1042053-0.56222701c0 0 118.91096805 105.89541789 184.12927672 194.72725206 0 0 3.93558759 3.09224706 0 8.71451567-3.09224706 5.90338138-9.55785546 21.36461821-9.55785545 21.3646182s-71.40280353-92.48630826-154.05014284-160.79686469c0 0-32.04692768-24.45686601-59.87715428 1.4055675-27.5491131 25.8624328-158.5479574 145.61674137-179.35034862 160.79686402-20.80239194 15.18012333-55.26689443 31.20358718-104.01195824-12.36898905-38.11897731-34.01472148-137.82989961-128.18771001-177.07333017-187.50263803 0 0-3.53359555-3.37336058-0.7027834-9.75463484 4.04803284-7.59006167 9.83896897-21.08350471 9.83896897-21.08350471M1450.67522341 767.25096674c-38.79364884 0-70.27835026-30.92247367-70.27834952-70.84057653 0-39.35587585 31.48470068-71.12169002 70.27834952-71.12169002 26.1435463 0 48.91373132 14.61789706 61.00160827 35.98251524h28.11133941c-13.77455657-35.70140177-48.35150502-61.28272106-88.83183418-61.28272105-52.84931889 0-95.57855605 43.01034994-95.57855603 96.14078233 0 54.2548864 42.72923644 96.42189583 95.57855603 96.42189657 40.76144263 0 75.90061812-25.3002058 89.39406116-61.84494807h-27.83022661c-11.80676273 22.48907223-35.13917476 36.54474227-61.84494805 36.54474153m1315.61071102-93.89187503c-15.46123681-21.08350471-41.32366965-19.11571092-41.32366967-19.11571164-14.89900985 0-28.95467988 6.46560838-37.95030905 14.05567005-14.05567005 12.36898976-18.55348463 30.92247367-18.55348463 30.92247439-11.80676273 45.54037073 9.27674196 73.65171083 9.27674266 73.65171012 10.40119597 14.05567005 31.20358718 19.67793793 47.50816454 19.67793865 28.39245361 2.81113431 49.19484481-8.43340218 49.19484481-8.43340219v-22.48907222c-82.92845278 30.92247367-83.7717933-30.92247367-83.77179329-30.92247366h89.39406116c0.8433405-27.8302266-5.34115437-45.82148422-13.77455653-57.3471335z m-73.37059734 34.85806125s5.62226787-30.92247367 32.04692767-30.92247369c26.1435463 0 27.26799959 30.92247367 27.2679996 30.92247369h-59.31492727m-182.44259641-48.63261781c-34.01472148-16.30457735-57.62824699 7.30894817-57.62824701 7.30894818v-76.46284514h-26.98688607v202.12053509h20.52127771l3.65447408-14.05567006c11.80676273 14.05567005 32.89026747 16.86680364 32.8902682 16.86680362 18.27237114 0 32.32804118-8.43340218 42.16701012-19.67793793 11.52564925-11.24453574 17.42903063-30.92247367 18.27237041-39.35587584 2.5300208-19.95905143 1.96779381-59.87715428-32.89026744-76.74395792z m-25.58131932 110.47756588c-24.17575253 0-32.32804118-14.05567005-32.3280412-14.05567004v-65.21830866s11.80676273-13.21232957 31.76581419-13.21233026c19.67793793 0 28.95467988 15.46123681 31.48470069 38.51253607 2.5300208 23.05129849-3.37336058 53.9737729-30.92247368 53.97377289m-146.74119467-115.53760747c-38.23142256 0-69.43500974 31.20358718-69.43500973 69.71612326 0 37.38808206 31.20358718 68.31055645 69.43500973 68.31055646s69.43500974-30.92247367 69.43500977-68.31055646c0-38.51253607-31.20358718-69.71612324-69.43500977-69.71612326z m0 115.53760747c-25.3002058 0-45.82148422-19.67793793-45.82148421-45.82148421 0-25.5813193 20.52127843-46.10259774 45.82148421-46.10259774s45.82148422 20.52127843 45.82148427 46.10259774c0 26.1435463-20.52127843 45.82148422-45.82148427 45.82148421m-179.63146281-28.11134009L2101.45274388 605.32964878h-35.98251526v187.22152449h26.98688683v-143.08672059l59.31492724 143.08672059h13.21232956l59.31492727-141.96226729v141.96226729h27.2679996v-187.22152449h-35.70140104l-57.3471342 136.62111216m-200.15274059-83.77179329c-31.76581418-11.52564925-65.78053567 4.21670108-65.78053492 4.21670108v24.45686603s70.27835026-31.48470068 70.27834953 23.894639l-0.28111349 1.40556679s-38.51253607-11.52564925-59.59604079 1.40556678c0 0-33.17138097 17.14791712-18.27237041 56.50379372 0 0 11.52564925 25.3002058 41.60478315 25.30020579 10.40119597 0 22.77018573-5.62226787 37.38808204-14.05567005l2.24890729 11.24453648h22.77018501V706.24935918s2.81113431-35.70140177-30.36024741-48.07039155z m3.37336132 100.63859765s-12.08787628 11.24453574-35.42028825 11.24453573c0 0-21.64573171 0-18.27237114-22.48907222 3.09224706-22.48907223 30.92247367-19.67793793 53.69265939-14.05567004v25.30020652M1830.45942682 655.64894757s-32.32804118-8.43340218-53.13043242 17.14791713l-4.21670108-15.74235034H1752.8721284v132.68552461h25.58131929V700.6270913c5.06004089-8.15228867 18.83459815-26.7057733 43.01034992-22.77018573 0 0 14.05567005 2.2489073 14.05567006 25.58131932v86.30181406h26.70577333v-85.45847357s3.65447406-39.91810285-31.76581418-48.63261781m-191.15711212 0s-31.20358718-8.15228867-51.72486563 15.74235032v-81.52288598h-26.70577256v199.87162704h26.70577256v-89.95628816c4.49781458-8.71451568 17.42903063-26.98688608 42.7292372-21.92684522 0 0 14.05567005 2.2489073 14.05567003 25.58131932v86.30181406h26.70577261v-85.45847357s3.37336058-39.91810285-31.76581421-48.63261779m924.30085835-21.36461896h26.70577331V605.04853526h-26.70577331v29.23579339z m55.66045322 158.26684464h25.30020579v-202.68276134h-25.30020579v202.68276134z m-55.66045322 0h26.70577331v-134.37220562h-26.70577331v134.37220562z m-864.70481758-158.26684464h26.42465984V605.04853526h-26.42465984v29.23579339z m0 158.26684464h26.42465984v-134.37220562h-26.42465984v134.37220562z m995.14143489-526.72217742l1.40556752-69.15389626h-35.13917548s0 30.92247367 0.28111351 69.15389626h-43.29146345v31.48470067H2660.8684094c0.562227 24.17575253-0.2811135 48.91373132-1.68668029 66.06164915-3.09224706 39.35587585-9.27674196 55.3793397-9.27674195 55.3793397-17.14791712 65.13397452-68.02944295 93.80754162-68.02944297 93.80754164l25.30020581 23.894639c90.51851445-58.19047401 85.17736009-187.4183039 85.17736008-187.41830388l1.12445402-51.72486561h56.22267947l-6.74672118 170.83261304c0 21.36461821-20.80239194 20.24016493-20.80239191 20.24016493h-39.07476236l6.46560839 33.73360797h37.10696855c47.78927802 0 49.47595831-48.63261781 49.47595834-48.63261855l7.30894816-207.65846806h-89.3940612M2587.77892557 482.20197961l32.04692769-12.36898976c-6.74672189-16.58569085-38.79364884-87.34193325-38.79364957-87.34193326l-29.51690689 12.65010327c8.15228867 17.42903063 16.30457735 36.74152165 22.77018572 52.76498477-14.61789706 3.37336058-53.13043238 12.36898976-71.96503054 18.55348464 0 0 9.27674196-15.18012333 26.14354633-62.32284095 14.05567005-38.51253607 16.58569085-50.03818532 22.20795872-57.34713349H2627.13480143v-31.48470068h-166.41913258v31.48470068h53.6926594c-2.5300208 9.83896897-11.52564925 45.25925722-25.86243279 79.47075808-8.15228867 19.39682442-16.86680364 37.95030907-28.1113401 52.00597912l7.87117514 24.7379795s84.05290681-25.5813193 116.38094727-28.67356709c1.96779381 5.06004089 3.09224706 7.87117518 3.09224781 7.87117517m-112.72647317-222.55747865h140.55669978v-31.76581418h-140.55669978v31.76581418z m-141.9622673 106.26086551c2.81113431-5.06004089 5.34115437-10.12008246 7.5900624-15.46123755l-30.9224744-5.06004088c4.77892809-2.5300208 9.27674196-5.34115437 13.49344302-8.15228867 61.56383457-40.48032986 81.8039995-85.73958709 81.80399952-85.73958708v-26.98688609h-105.97975128c4.21670108-6.74672189 8.15228867-13.77455657 11.24453573-20.52127845l-30.64136089-11.80676275s-25.0190923 54.53599918-74.2139371 91.64296845l26.70577258 20.52127846s23.33241201-21.64573171 46.10259775-50.31929883h90.51851444c-12.36898976 19.67793793-30.36024739 35.98251527-49.4759583 49.47595831l-39.91810287-33.17138096-21.0835047 21.92684522 33.73360798 28.1113401c-41.04255614 22.77018573-79.83620571 32.89026747-79.83620572 32.89026746l20.24016493 25.86243281c29.23579339-11.24453574 51.16263861-19.95905143 70.27835026-29.7980204-5.06004089 8.71451568-17.99125763 28.67356711-41.60478315 50.31929883-14.33678355 13.21232957-33.73360798 27.46477897-56.2226802 39.55265522l24.17575252 24.17575252s48.07039152-24.73797952 83.4906798-67.66399532h68.02944221c-7.30894817 32.52482059-28.11134011 55.57611908-53.1304324 71.3184694l-36.54474156-35.70140176-23.05129922 18.83459742s20.52127843 19.39682442 31.48470067 31.48470068c-49.19484481 20.52127843-101.48193743 21.92684521-101.4819367 21.92684522l13.77455657 27.26800029c66.06164917-5.06004089 110.75867937-23.33241201 141.96226656-46.94593823 51.72486561-39.35587585 64.09385537-89.02861354 64.09385537-89.02861353v-28.95467987h-84.61513382m-129.0310505 50.60041158l21.64573242-25.30020579-54.81711342-46.66482475v-16.30457661h46.10259775v-29.51690762h-46.10259775v-47.50816452c21.36461821-5.06004089 47.22705102-10.12008246 47.22705102-10.12008173l-6.74672114-31.48470141c-27.8302266 8.99562845-120.59764835 18.83459815-120.59764835 18.83459815l4.77892738 31.20358717 43.01034992-7.02783467v46.10259701h-52.00597841v29.51690762H2135.18635184c-3.93558759 12.36898976-20.52127843 62.40717507-54.53599916 109.83100475l23.894639 25.86243281s19.67793793-31.76581418 34.01472076-64.00952125V531.95905143h32.32804117V384.7399639l33.17138101 31.76581417m-269.86886311 15.09578994l25.58131932-20.1558308c-13.49344305-15.74235034-37.95030907-43.29146343-37.95030907-43.29146416l-23.894639 17.99125762c20.80239194 22.77018573 36.26362877 45.45603662 36.26362875 45.45603734m-44.13480393 3.93558758V366.74870625h71.40280354v-29.51690689h-71.40280354v-43.29146342h77.58729843v-29.51690689H1780.98346849v29.51690689h77.86841193v43.29146342h-71.96503054v29.51690689h71.96503054v68.78844934h-83.20956631v29.5169069h197.06049275v-29.5169069h-82.64733928m133.80997789-227.89863374H1727.8530361V521.83896897h296.01240937V207.63852185z m-296.01240937 0z m263.4032554 284.40242672h-231.63744121V238.27988274h231.63744121v253.76106583z m-342.95834761-232.39644761h-129.31216401v-62.68828785h-34.01472151v62.68828785h-128.18771V436.38049538h128.18771v96.42189656h34.01472151V436.38049538h129.31216401V259.64450096z m-163.32688552 145.61674138h-95.01632905v-114.4131542h95.01632905v114.4131542z m-95.01632905 0z m225.17183287 0h-96.14078231v-114.4131542H1615.12656219v114.4131542z" p-id="24732"></path></svg>